<?xml version="1.0" encoding="UTF-8" standalone="no"?>
<svg width="20px" height="24px" viewBox="0 0 20 24" version="1.1" xmlns="http://www.w3.org/2000/svg" xmlns:xlink="http://www.w3.org/1999/xlink" xmlns:sketch="http://www.bohemiancoding.com/sketch/ns">
    <!-- Generator: Sketch 3.2 (9961) - http://www.bohemiancoding.com/sketch -->
    <title>Footer - Logo</title>
    <desc>Created with Sketch.</desc>
    <defs></defs>
    <g id="Page-1" stroke="none" stroke-width="1" fill="none" fill-rule="evenodd" sketch:type="MSPage">
        <g id="Desktop---Home-2" sketch:type="MSArtboardGroup" transform="translate(-160.000000, -2274.000000)" fill="#000000">
            <g id="Footer---Logo" sketch:type="MSLayerGroup" transform="translate(160.000000, 2274.000000)">
                <path d="M16.590084,12.5937534 C16.5608403,9.5850411 19.1011765,8.13961644 19.2157983,8.06958904 C17.7872269,6.02613699 15.5640336,5.74635616 14.7717647,5.71249315 C12.8786555,5.52526027 11.0784874,6.80268493 10.1189916,6.80268493 C9.16,6.80268493 7.67747899,5.74093151 6.10890756,5.7700274 C4.04487395,5.7989589 2.14403361,6.94257534 1.08016807,8.74849315 C-1.06184874,12.3867945 0.532773109,17.7746301 2.6210084,20.7253151 C3.64184874,22.1676164 4.85831933,23.7913973 6.45731092,23.7327123 C7.99680672,23.6741918 8.57865546,22.7598904 10.4383193,22.7598904 C12.2986555,22.7598904 12.8223529,23.7327123 14.449916,23.7024658 C16.1063866,23.6741918 17.1554622,22.231726 18.1690756,20.7838356 C19.3411765,19.1084384 19.8231933,17.4864658 19.8522689,17.4029589 C19.8159664,17.3870137 16.6228571,16.1899726 16.590084,12.5937534" id="Fill-1" sketch:type="MSShapeGroup"></path>
                <path d="M13.5315966,3.76076712 C14.3806723,2.75539726 14.9517647,1.3579726 14.7952941,-0.0346849315 C13.5734454,0.0141369863 12.0931092,0.762246575 11.2152941,1.76646575 C10.4292437,2.65627397 9.74084034,4.07835616 9.92689076,5.44323288 C11.2894118,5.54646575 12.6823529,4.76515068 13.5315966,3.76076712" id="Fill-2" sketch:type="MSShapeGroup"></path>
            </g>
        </g>
    </g>
</svg>